<svg xmlns="http://www.w3.org/2000/svg" viewBox="0 0 800 640" role="img" aria-labelledby="title desc">
  <title id="title">Encuentro comunitario de etnoeducación</title>
  <desc id="desc">Gráfico con personas dialogando alrededor de un círculo de aprendizaje con símbolos de memoria, tecnología y territorio.</desc>
  <defs>
    <radialGradient id="glow" cx="50%" cy="50%" r="60%">
      <stop offset="0%" stop-color="#ffffff" stop-opacity="0.95" />
      <stop offset="60%" stop-color="#f9f1ff" stop-opacity="0.85" />
      <stop offset="100%" stop-color="#dce8ff" stop-opacity="0.75" />
    </radialGradient>
    <linearGradient id="line" x1="0" y1="0" x2="1" y2="1">
      <stop offset="0%" stop-color="#6f6ac3" />
      <stop offset="100%" stop-color="#27ae60" />
    </linearGradient>
  </defs>
  <rect width="800" height="640" rx="48" fill="#fef9f6" />
  <circle cx="400" cy="320" r="230" fill="url(#glow)" />
  <g fill="none" stroke="url(#line)" stroke-width="6" opacity="0.45">
    <circle cx="400" cy="320" r="200" />
    <circle cx="400" cy="320" r="150" />
  </g>
  <g fill="#2c2a6c" opacity="0.45">
    <path d="M400 160v40" stroke="#2c2a6c" stroke-width="8" stroke-linecap="round" />
    <path d="M400 480v40" stroke="#2c2a6c" stroke-width="8" stroke-linecap="round" />
    <path d="M220 320h40" stroke="#2c2a6c" stroke-width="8" stroke-linecap="round" />
    <path d="M540 320h40" stroke="#2c2a6c" stroke-width="8" stroke-linecap="round" />
  </g>
  <g fill="#ffffff" stroke="#2c2a6c" stroke-width="4" opacity="0.9">
    <circle cx="400" cy="130" r="36" />
    <circle cx="400" cy="510" r="36" />
    <circle cx="190" cy="320" r="36" />
    <circle cx="610" cy="320" r="36" />
  </g>
  <g fill="#2c2a6c" font-family="'Work Sans', 'Helvetica Neue', Arial, sans-serif" font-weight="600" font-size="18" opacity="0.8">
    <text x="372" y="138">Memoria</text>
    <text x="374" y="518">Futuro</text>
    <text x="158" y="328">Territorio</text>
    <text x="576" y="328">Tecnología</text>
  </g>
  <g fill="#27ae60" opacity="0.65">
    <circle cx="290" cy="210" r="20" />
    <circle cx="290" cy="430" r="16" />
    <circle cx="510" cy="210" r="18" />
    <circle cx="510" cy="430" r="20" />
  </g>
  <g fill="#f48406" opacity="0.75">
    <circle cx="340" cy="260" r="14" />
    <circle cx="460" cy="260" r="12" />
    <circle cx="340" cy="380" r="12" />
    <circle cx="460" cy="380" r="14" />
  </g>
  <g fill="#2c2a6c" font-size="20" font-family="'Work Sans', 'Helvetica Neue', Arial, sans-serif" font-weight="600" text-anchor="middle">
    <text x="400" y="316">Círculo de saberes</text>
    <text x="400" y="346" font-size="16" opacity="0.7">Co-creación pedagógica afrodescendiente</text>
  </g>
</svg>
