<svg xmlns="http://www.w3.org/2000/svg" viewBox="0 0 320 320" role="img" aria-labelledby="title desc">
  <title id="title">Ilustración de Elizabeth Méndez Grueso</title>
  <desc id="desc">Retrato vectorial de una mujer afro con elementos de economía solidaria y hojas tropicales.</desc>
  <defs>
    <linearGradient id="bg" x1="0" y1="0" x2="1" y2="1">
      <stop offset="0%" stop-color="#e8fff0" />
      <stop offset="100%" stop-color="#fef3d6" />
    </linearGradient>
  </defs>
  <rect width="320" height="320" rx="48" fill="url(#bg)" />
  <circle cx="160" cy="120" r="70" fill="#2c2a6c" opacity="0.15" />
  <path d="M72 248c36-40 68-60 88-60s52 20 88 60" fill="#ffd88a" opacity="0.34" />
  <circle cx="160" cy="134" r="66" fill="#2c2a6c" />
  <path d="M122 136c6 30 18 50 38 50s32-20 38-50c-8-36-22-52-38-52s-30 16-38 52z" fill="#f7c09c" />
  <path d="M122 130c8-20 22-30 38-30s30 10 38 30c-6-26-22-42-38-42s-32 16-38 42z" fill="#2c2a6c" />
  <circle cx="138" cy="154" r="8" fill="#2c2a6c" />
  <circle cx="182" cy="154" r="8" fill="#2c2a6c" />
  <path d="M140 182c6 8 14 12 20 12s14-4 20-12" fill="none" stroke="#f48406" stroke-width="4" stroke-linecap="round" />
  <g fill="#27ae60" opacity="0.4">
    <path d="M60 220c20-16 32-16 52 0" />
    <path d="M208 220c20-16 32-16 52 0" />
  </g>
  <g fill="#2c2a6c" opacity="0.45">
    <path d="M120 236h80" stroke="#2c2a6c" stroke-width="10" stroke-linecap="round" />
    <circle cx="110" cy="236" r="12" />
    <circle cx="210" cy="236" r="12" />
  </g>
</svg>
