<svg xmlns="http://www.w3.org/2000/svg" viewBox="0 0 320 320" role="img" aria-labelledby="title desc">
  <title id="title">Ilustración de Diana Angulo Balanta</title>
  <desc id="desc">Retrato vectorial de una mujer afro con cámara y ondas sonoras que representan la comunicación comunitaria.</desc>
  <defs>
    <linearGradient id="bg" x1="0" y1="0" x2="1" y2="1">
      <stop offset="0%" stop-color="#d9f2ff" />
      <stop offset="100%" stop-color="#ffe2f7" />
    </linearGradient>
  </defs>
  <rect width="320" height="320" rx="48" fill="url(#bg)" />
  <circle cx="160" cy="120" r="72" fill="#2c2a6c" opacity="0.18" />
  <path d="M70 250c38-46 74-70 90-70s52 24 90 70" fill="#f7b0c9" opacity="0.32" />
  <circle cx="160" cy="132" r="68" fill="#2c2a6c" />
  <path d="M118 140c6 28 20 46 42 46s36-18 42-46c-8-40-24-58-42-58s-34 18-42 58z" fill="#f9c6a9" />
  <path d="M118 134c10-20 24-30 42-30s32 10 42 30c-6-30-24-46-42-46s-36 16-42 46z" fill="#2c2a6c" />
  <circle cx="135" cy="156" r="8" fill="#2c2a6c" />
  <circle cx="185" cy="156" r="8" fill="#2c2a6c" />
  <path d="M140 182c6 8 14 12 20 12s14-4 20-12" fill="none" stroke="#b5479b" stroke-width="4" stroke-linecap="round" />
  <g fill="#b5479b" opacity="0.6">
    <rect x="96" y="212" width="128" height="36" rx="18" />
    <circle cx="112" cy="230" r="12" fill="#fef4fb" />
    <rect x="172" y="222" width="36" height="16" rx="8" fill="#fef4fb" />
  </g>
  <g stroke="#2c2a6c" stroke-width="4" opacity="0.35" fill="none" stroke-linecap="round">
    <path d="M40 120c40 0 60 20 80 40" />
    <path d="M280 120c-40 0-60 20-80 40" />
  </g>
</svg>
