<svg xmlns="http://www.w3.org/2000/svg" viewBox="0 0 320 320" role="img" aria-labelledby="title desc">
  <title id="title">Ilustración de Nieves Méndez Olaya</title>
  <desc id="desc">Retrato vectorial estilizado de una mujer afro sonriente con tejidos comunitarios.</desc>
  <defs>
    <linearGradient id="bg" x1="0" y1="0" x2="1" y2="1">
      <stop offset="0%" stop-color="#fce8d5" />
      <stop offset="100%" stop-color="#f7d9ff" />
    </linearGradient>
  </defs>
  <rect width="320" height="320" rx="48" fill="url(#bg)" />
  <circle cx="160" cy="130" r="70" fill="#2c2a6c" opacity="0.15" />
  <circle cx="160" cy="150" r="78" fill="#2c2a6c" opacity="0.12" />
  <path d="M80 240c30-40 60-60 80-60s50 20 80 60" fill="#f9b27d" opacity="0.35" />
  <circle cx="160" cy="140" r="68" fill="#2c2a6c" />
  <path d="M110 208c12 14 28 22 50 22s38-8 50-22c-10-28-30-42-50-42s-40 14-50 42z" fill="#f7b99c" />
  <path d="M110 140c0 28 16 56 50 56s50-28 50-56c0-44-26-64-50-64s-50 20-50 64z" fill="#f9c6a9" />
  <path d="M110 136c10-12 26-18 50-18s40 6 50 18c-4-28-26-44-50-44s-46 16-50 44z" fill="#2c2a6c" />
  <path d="M120 150c10 6 22 10 40 10s30-4 40-10" fill="none" stroke="#2c2a6c" stroke-width="4" stroke-linecap="round" />
  <circle cx="135" cy="156" r="8" fill="#2c2a6c" />
  <circle cx="185" cy="156" r="8" fill="#2c2a6c" />
  <path d="M140 182c6 8 14 12 20 12s14-4 20-12" fill="none" stroke="#d46a27" stroke-width="4" stroke-linecap="round" />
  <g fill="#d46a27" opacity="0.55">
    <circle cx="70" cy="260" r="16" />
    <circle cx="250" cy="260" r="16" />
    <path d="M95 260h130" stroke="#d46a27" stroke-width="12" stroke-linecap="round" />
  </g>
</svg>
